<?xml version="1.0" encoding="UTF-8"?>
<!-- Do not edit this file with editors other than diagrams.net -->
<!DOCTYPE svg PUBLIC "-//W3C//DTD SVG 1.1//EN" "http://www.w3.org/Graphics/SVG/1.1/DTD/svg11.dtd">
<svg xmlns="http://www.w3.org/2000/svg" xmlns:xlink="http://www.w3.org/1999/xlink" version="1.1" width="762px" height="474px" viewBox="-0.5 -0.5 762 474" content="&lt;mxfile host=&quot;Electron&quot; modified=&quot;2026-02-15T18:22:16.093Z&quot; agent=&quot;5.0 (X11; Linux x86_64) AppleWebKit/537.36 (KHTML, like Gecko) draw.io/20.3.0 Chrome/104.0.5112.114 Electron/20.1.3 Safari/537.36&quot; etag=&quot;2gIw17HsU_m6DsXcbqtY&quot; version=&quot;20.3.0&quot; type=&quot;device&quot;&gt;&lt;diagram id=&quot;SX15d17i4SaqIwljxuRo&quot; name=&quot;Page-1&quot;&gt;7Vtbc9o4FP41PC5jW77xGC5pZ0rS7NJ206eMggVWY1uMLAL0169sy8aWuC3FJgmYGQYdS7J0vk/Sd46HFuiFy08Uzvw74qGgZWjesgX6LcNwdcC/E8MqM+i6oWeWKcWesK0NI/wbCaMmrHPsobhSkRESMDyrGsckitCYVWyQUrKoVpuQoPrUGZwixTAaw0C1/os95ot5Gc7a/hnhqZ8/Wbc72Z0Q5pXFTGIfemRRMoFBC/QoISz7FS57KEicl/sla3e75W4xMIoidkiD8IUNX379/Rg+UQh///z0oln3f4nBxmyVTxh5fP6iSCjzyZREMBisrV1K5pGHkl41XlrXGRIy40adG38hxlYCTDhnhJt8FgbibswoeSncCbgFRd5NAhYvRiRCmeUWB4F4SNaiRwJC01GC2/Tid7LxJ4Pe6hZhismcjtEOX+T0gnSK2I56TgEeZz0iIWJ0xdtRFECGX6vjgIJ+06LeGiH+Q4D0PwAT/b7CYC6e9PBjoCsoviLKMGfxTYCnETexBJpubh3CZxQ8kBgzTJK7z4QxEvIKgXRjzJ2IuMu7UPRTGEpwkjkLcMTRyVdggtiEg1fC61lDANmbkNSQq7kuvzOl0MO8+z6mvJvs+VHCLoUxRmLx4SyZa7icJhtPO0JsQehL3I4RfU1HOCER286YxBVouZszKsZ5A1esabGrGY4oL9ZbREeY/PLuoGk10cJQaPH56+gbt4y+3dz3b4Zf7wcKR6rreOFjhkYzmC6RBfdpFWSZUAVlJKBt07FdR3X/JL02EQDoJrDM0wADOlVgCqBKwJj6BmQAqAsZoCAzYoQmp46hDQn36GlxCbHnpbu0hIt5aw3s7rlwKXwucDENFRd3AyxWXaiYCir32QZyCWhYGnhbaFgKGqosURSCB2M/xUWvYlAFjLuErh7LhZ/lQn9ZKa2OPr1UTXMGZWJshr0Eq7UD1oMFjHjCA8F8ItsPRZku2TRFq7JQlToygNSRfGpmflA6SqlXTPt4NtpNs1G/svH0bHTMtmmbhms5evJtO1VOuUeSE+haWytdRqVbmfI1M9VRmPoPF+Nc/e4LB4pzaVtEUFSQIwKaIVUEBAGasLccDix48wDF8ZM/f645KJA1jnqoFvq/THjXqulUzcdTDgpWMx4e4ZioFKlF5+hm8qnX77K2BBvUDLCblDOGqR4Yl5tVMQ88Ls6bVlEDgu5N78v3h71b6aVlVp5iEb7Wu6j3J1h0zVLXdGE8PUPUIOUOha0eaHUBxbCZ/fTMcWOnKqLOHjfqqlTvPXy/BCjszhtLqOiqFv1xp6mJ6VqwmFjJR8UiuzZhYadXPQKkeHe1Bwu7Nv2hviTgWKhR7AfEQk5tnR8LQ8Fi+Ni7jIUhnxfnB0NNxidgXMTKkE+Ms4MB1PBUwSHXopMALUUoU45qxgGMYzxOXQcpU81bE3GHps70DXD1b41U5m4T4rlD3bZbvjr5MEUEB9qmYWXzKSwdV7NK1xr6/aHYzkTbxsRDYfzDVJtpSQG4I1Hm0Nya3FEhahpKpwE1CLwy8j0y0jLN0zBS7qhxRh7wZuzKyHfASBu4p2Gk3FHjjDzg7diVke+AkQ4wTsNIuaPGGalmHq6MfI+MlOWfcSodCZpmpHtl5IdgpCz/jmakIkibZmTnysgPwUhZ/h3NSEWQNszI/AXflZHvnJGy/DuakYogPRkjeXH9N5us+vrPSmDwHw==&lt;/diagram&gt;&lt;/mxfile&gt;"><defs/><g><path d="M 186 231 L 186 158.5 L 121 158.5 L 121 86" fill="none" stroke="#ffffff" stroke-width="3" stroke-miterlimit="10" pointer-events="stroke"/><rect x="141" y="316" width="90" height="15" rx="2" ry="2" fill="#b0e3e6" stroke="#0e8088" stroke-width="2" pointer-events="all"/><rect x="141" y="298.5" width="90" height="15" rx="2" ry="2" fill="#b0e3e6" stroke="#0e8088" stroke-width="2" pointer-events="all"/><rect x="141" y="281" width="90" height="15" rx="2" ry="2" fill="#b0e3e6" stroke="#0e8088" stroke-width="2" pointer-events="all"/><rect x="141" y="263.5" width="90" height="15" rx="2" ry="2" fill="#b0e3e6" stroke="#0e8088" stroke-width="2" pointer-events="all"/><rect x="141" y="246" width="90" height="15" rx="2" ry="2" fill="#b0e3e6" stroke="#0e8088" stroke-width="2" pointer-events="all"/><path d="M 145 244 L 166 231 L 206 231 L 227 244 Z" fill="#b0e3e6" stroke="#0e8088" stroke-width="2" stroke-miterlimit="10" pointer-events="all"/><ellipse cx="223" cy="323.5" rx="4" ry="4" fill="#ffffff" stroke="none" pointer-events="all"/><ellipse cx="222.67" cy="306" rx="4" ry="4" fill="#ffffff" stroke="none" pointer-events="all"/><ellipse cx="223" cy="288.5" rx="4" ry="4" fill="#ffffff" stroke="none" pointer-events="all"/><ellipse cx="223" cy="271" rx="4" ry="4" fill="#ffffff" stroke="none" pointer-events="all"/><ellipse cx="223" cy="253.5" rx="4" ry="4" fill="#ffffff" stroke="none" pointer-events="all"/><path d="M 146 329 L 151 318 L 156 318 L 151 329 Z M 156 329 L 161 318 L 166 318 L 161 329 Z M 166 329 L 171 318 L 176 318 L 171 329 Z M 176 329 L 181 318 L 186 318 L 181 329 Z M 186 329 L 191 318 L 196 318 L 191 329 Z M 196 329 L 201 318 L 206 318 L 201 329 Z M 146 311.5 L 151 300.5 L 156 300.5 L 151 311.5 Z M 156 311.5 L 161 300.5 L 166 300.5 L 161 311.5 Z M 166 311.5 L 171 300.5 L 176 300.5 L 171 311.5 Z M 176 311.5 L 181 300.5 L 186 300.5 L 181 311.5 Z M 186 311.5 L 191 300.5 L 196 300.5 L 191 311.5 Z M 196 311.5 L 201 300.5 L 206 300.5 L 201 311.5 Z M 146 294 L 151 283 L 156 283 L 151 294 Z M 156 294 L 161 283 L 166 283 L 161 294 Z M 166 294 L 170.5 283 L 175.5 283 L 170.5 294 Z M 176 294 L 181 283 L 186 283 L 181 294 Z M 186 294 L 191 283 L 196 283 L 191 294 Z M 196 294 L 201 283 L 206 283 L 201 294 Z M 146 276.5 L 151 265.5 L 156 265.5 L 151 276.5 Z M 156 276.5 L 161 265.5 L 166 265.5 L 161 276.5 Z M 166 276.5 L 171 265.5 L 176 265.5 L 171 276.5 Z M 176 276.5 L 181 265.5 L 186 265.5 L 181 276.5 Z M 186 276.5 L 191 265.5 L 196 265.5 L 191 276.5 Z M 196 276.5 L 201 265.5 L 206 265.5 L 201 276.5 Z M 146 259 L 151 248 L 156 248 L 151 259 Z M 156 259 L 161 248 L 166 248 L 161 259 Z M 166 259 L 171 248 L 176 248 L 171 259 Z M 176 259 L 181 248 L 186 248 L 181 259 Z M 186 259 L 191 248 L 196 248 L 191 259 Z M 196 259 L 201 248 L 206 248 L 201 259 Z" fill="#ffffff" stroke="none" pointer-events="all"/><g transform="translate(-0.5 -0.5)"><switch><foreignObject pointer-events="none" width="100%" height="100%" requiredFeatures="http://www.w3.org/TR/SVG11/feature#Extensibility" style="overflow: visible; text-align: left;"><div xmlns="http://www.w3.org/1999/xhtml" style="display: flex; align-items: unsafe flex-start; justify-content: unsafe center; width: 1px; height: 1px; padding-top: 338px; margin-left: 186px;"><div data-drawio-colors="color: var(--color-5) " style="box-sizing: border-box; font-size: 0px; text-align: center;"><div style="display: inline-block; font-size: 12px; font-family: Helvetica; color: rgb(255, 255, 255); line-height: 1.2; pointer-events: all; white-space: nowrap;">PVE1</div></div></div></foreignObject><text x="186" y="350" fill="#FFFFFF" font-family="Helvetica" font-size="12px" text-anchor="middle">PVE1</text></switch></g><rect x="351" y="141" width="410" height="330" fill="#647687" stroke="#314354" pointer-events="all"/><g transform="translate(-0.5 -0.5)"><switch><foreignObject pointer-events="none" width="100%" height="100%" requiredFeatures="http://www.w3.org/TR/SVG11/feature#Extensibility" style="overflow: visible; text-align: left;"><div xmlns="http://www.w3.org/1999/xhtml" style="display: flex; align-items: unsafe flex-end; justify-content: unsafe center; width: 408px; height: 1px; padding-top: 468px; margin-left: 352px;"><div data-drawio-colors="color: var(--color-5) " style="box-sizing: border-box; font-size: 0px; text-align: center;"><div style="display: inline-block; font-size: 12px; font-family: Helvetica; color: rgb(255, 255, 255); line-height: 1.2; pointer-events: all; white-space: normal; overflow-wrap: normal;">HOST STANDALONE</div></div></div></foreignObject><text x="556" y="468" fill="#ffffff" font-family="Helvetica" font-size="12px" text-anchor="middle">HOST STANDALONE</text></switch></g><rect x="371" y="381" width="80" height="50" fill="#4f5e6b" stroke="#314354" pointer-events="all"/><g transform="translate(-0.5 -0.5)"><switch><foreignObject pointer-events="none" width="100%" height="100%" requiredFeatures="http://www.w3.org/TR/SVG11/feature#Extensibility" style="overflow: visible; text-align: left;"><div xmlns="http://www.w3.org/1999/xhtml" style="display: flex; align-items: unsafe center; justify-content: unsafe center; width: 78px; height: 1px; padding-top: 406px; margin-left: 372px;"><div data-drawio-colors="color: var(--color-5) " style="box-sizing: border-box; font-size: 0px; text-align: center;"><div style="display: inline-block; font-size: 12px; font-family: Helvetica; color: rgb(255, 255, 255); line-height: 1.2; pointer-events: all; white-space: normal; overflow-wrap: normal;">Storage Local</div></div></div></foreignObject><text x="411" y="410" fill="#ffffff" font-family="Helvetica" font-size="12px" text-anchor="middle">Storage Local</text></switch></g><rect x="464" y="381" width="80" height="50" fill="#4f5e6b" stroke="#314354" pointer-events="all"/><g transform="translate(-0.5 -0.5)"><switch><foreignObject pointer-events="none" width="100%" height="100%" requiredFeatures="http://www.w3.org/TR/SVG11/feature#Extensibility" style="overflow: visible; text-align: left;"><div xmlns="http://www.w3.org/1999/xhtml" style="display: flex; align-items: unsafe center; justify-content: unsafe center; width: 78px; height: 1px; padding-top: 406px; margin-left: 465px;"><div data-drawio-colors="color: var(--color-5) " style="box-sizing: border-box; font-size: 0px; text-align: center;"><div style="display: inline-block; font-size: 12px; font-family: Helvetica; color: rgb(255, 255, 255); line-height: 1.2; pointer-events: all; white-space: normal; overflow-wrap: normal;">Network</div></div></div></foreignObject><text x="504" y="410" fill="#ffffff" font-family="Helvetica" font-size="12px" text-anchor="middle">Network</text></switch></g><path d="M 231 242.82 L 351 141" fill="none" stroke="#0e8088" stroke-width="3" stroke-miterlimit="10" stroke-dasharray="9 9" pointer-events="stroke"/><path d="M 229.42 331 L 351 471" fill="none" stroke="#0e8088" stroke-width="3" stroke-miterlimit="10" stroke-dasharray="9 9" pointer-events="stroke"/><rect x="71" y="57.2" width="100" height="24.82" rx="4.96" ry="4.96" fill="#b0e3e6" stroke="#0e8088" stroke-width="1.99" pointer-events="all"/><rect x="81" y="82.03" width="80" height="3.97" fill="#b0e3e6" stroke="#0e8088" stroke-width="1.99" pointer-events="all"/><path d="M 138 57.2 L 138.5 12.52 C 138.78 12.1 139.25 11.85 139.75 11.85 C 140.25 11.85 140.72 12.1 141 12.52 L 141.5 57.2 Z" fill="#b0e3e6" stroke="#0e8088" stroke-width="1.99" stroke-miterlimit="10" pointer-events="all"/><ellipse cx="159" cy="69.62" rx="8" ry="7.94392523364486" fill="#ffffff" stroke="none" pointer-events="all"/><ellipse cx="146" cy="62.17" rx="2" ry="1.985981308411215" fill="#ffffff" stroke="none" pointer-events="all"/><ellipse cx="146" cy="77.06" rx="2" ry="1.985981308411215" fill="#ffffff" stroke="none" pointer-events="all"/><ellipse cx="146" cy="69.62" rx="2" ry="1.985981308411215" fill="#ffffff" stroke="none" pointer-events="all"/><ellipse cx="136.5" cy="74.08" rx="2" ry="1.985981308411215" fill="#ffffff" stroke="none" pointer-events="all"/><ellipse cx="128" cy="74.08" rx="2" ry="1.985981308411215" fill="#ffffff" stroke="none" pointer-events="all"/><ellipse cx="119.5" cy="74.08" rx="2" ry="1.985981308411215" fill="#ffffff" stroke="none" pointer-events="all"/><ellipse cx="111" cy="74.08" rx="2" ry="1.985981308411215" fill="#ffffff" stroke="none" pointer-events="all"/><ellipse cx="102.5" cy="74.08" rx="2" ry="1.985981308411215" fill="#ffffff" stroke="none" pointer-events="all"/><ellipse cx="94" cy="74.08" rx="2" ry="1.985981308411215" fill="#ffffff" stroke="none" pointer-events="all"/><ellipse cx="85.5" cy="74.08" rx="2" ry="1.985981308411215" fill="#ffffff" stroke="none" pointer-events="all"/><ellipse cx="77" cy="74.08" rx="2" ry="1.985981308411215" fill="#ffffff" stroke="none" pointer-events="all"/><path d="M 74 64.15 L 80 64.15 L 80 67.13 L 78 67.13 L 78 68.13 L 76 68.13 L 76 67.13 L 74 67.13 Z M 82.5 64.15 L 88.5 64.15 L 88.5 67.13 L 86.5 67.13 L 86.5 68.13 L 84.5 68.13 L 84.5 67.13 L 82.5 67.13 Z M 91 64.15 L 97 64.15 L 97 67.13 L 95 67.13 L 95 68.13 L 93 68.13 L 93 67.13 L 91 67.13 Z M 99.5 64.15 L 105.5 64.15 L 105.5 67.13 L 103.5 67.13 L 103.5 68.13 L 101.5 68.13 L 101.5 67.13 L 99.5 67.13 Z M 108 64.15 L 114 64.15 L 114 67.13 L 112 67.13 L 112 68.13 L 110 68.13 L 110 67.13 L 108 67.13 Z M 116.5 64.15 L 122.5 64.15 L 122.5 67.13 L 120.5 67.13 L 120.5 68.13 L 118.5 68.13 L 118.5 67.13 L 116.5 67.13 Z M 125 64.15 L 131 64.15 L 131 67.13 L 129 67.13 L 129 68.13 L 127 68.13 L 127 67.13 L 125 67.13 Z M 133.5 64.15 L 139.5 64.15 L 139.5 67.13 L 137.5 67.13 L 137.5 68.13 L 135.5 68.13 L 135.5 67.13 L 133.5 67.13 Z" fill="#ffffff" stroke="none" pointer-events="all"/><rect x="71" y="1" width="0" height="0" fill="none" stroke="#0e8088" stroke-width="1.99" pointer-events="all"/><path d="M 161 67.63 L 163 69.62 L 161 71.6 M 154 69.62 L 163 69.62" fill="none" stroke="#0e8088" stroke-width="1.99" stroke-miterlimit="10" pointer-events="all"/><path d="M 144.8 6.86 C 147 10.17 147 14.47 144.8 17.78 L 143.3 16.79 C 144.97 14.18 144.97 10.85 143.3 8.25 Z M 148.8 3.88 C 152.79 8.92 152.79 16.02 148.8 21.06 L 147.3 19.87 C 150.7 15.55 150.7 9.49 147.3 5.17 Z M 152.8 1 C 158.83 7.47 158.83 17.47 152.8 23.94 L 151.3 22.75 C 156.82 16.99 156.82 7.95 151.3 2.19 Z M 134.8 6.86 C 132.6 10.17 132.6 14.47 134.8 17.78 L 136.3 16.79 C 134.63 14.18 134.63 10.85 136.3 8.25 Z M 130.8 3.88 C 126.76 8.94 126.76 16.1 130.8 21.16 L 132.3 19.77 C 129 15.49 129 9.55 132.3 5.27 Z M 126.8 1.1 C 120.83 7.56 120.83 17.48 126.8 23.94 L 128.3 22.75 C 122.84 17.01 122.84 8.03 128.3 2.29 Z" fill="#b0e3e6" stroke="#0e8088" stroke-width="1.99" stroke-miterlimit="10" pointer-events="all"/><g transform="translate(-0.5 -0.5)"><switch><foreignObject pointer-events="none" width="100%" height="100%" requiredFeatures="http://www.w3.org/TR/SVG11/feature#Extensibility" style="overflow: visible; text-align: left;"><div xmlns="http://www.w3.org/1999/xhtml" style="display: flex; align-items: unsafe center; justify-content: unsafe flex-start; width: 1px; height: 1px; padding-top: 44px; margin-left: 173px;"><div data-drawio-colors="color: var(--color-5) " style="box-sizing: border-box; font-size: 0px; text-align: left;"><div style="display: inline-block; font-size: 12px; font-family: Helvetica; color: rgb(255, 255, 255); line-height: 1.2; pointer-events: all; white-space: nowrap;">Router</div></div></div></foreignObject><text x="173" y="47" fill="#FFFFFF" font-family="Helvetica" font-size="12px">Router</text></switch></g><rect x="371" y="281" width="360" height="50" fill="#141414" stroke="rgb(0, 0, 0)" pointer-events="all"/><g transform="translate(-0.5 -0.5)"><switch><foreignObject pointer-events="none" width="100%" height="100%" requiredFeatures="http://www.w3.org/TR/SVG11/feature#Extensibility" style="overflow: visible; text-align: left;"><div xmlns="http://www.w3.org/1999/xhtml" style="display: flex; align-items: unsafe center; justify-content: unsafe center; width: 358px; height: 1px; padding-top: 306px; margin-left: 372px;"><div data-drawio-colors="color: var(--color-5) " style="box-sizing: border-box; font-size: 0px; text-align: center;"><div style="display: inline-block; font-size: 12px; font-family: Helvetica; color: rgb(255, 255, 255); line-height: 1.2; pointer-events: all; white-space: normal; overflow-wrap: normal;">Hypervisor</div></div></div></foreignObject><text x="551" y="310" fill="#FFFFFF" font-family="Helvetica" font-size="12px" text-anchor="middle">Hypervisor</text></switch></g><path d="M 53.5 231 L 53.5 158.5 L 121 158.5 L 121 86" fill="none" stroke="#ffffff" stroke-width="3" stroke-miterlimit="10" pointer-events="stroke"/><rect x="1" y="315.11" width="91.75" height="14.84" rx="1.98" ry="1.98" fill="#b0e3e6" stroke="#0e8088" stroke-width="1.98" pointer-events="all"/><rect x="1" y="297.79" width="91.75" height="14.84" rx="1.98" ry="1.98" fill="#b0e3e6" stroke="#0e8088" stroke-width="1.98" pointer-events="all"/><rect x="1" y="280.48" width="91.75" height="14.84" rx="1.98" ry="1.98" fill="#b0e3e6" stroke="#0e8088" stroke-width="1.98" pointer-events="all"/><rect x="1" y="263.16" width="91.75" height="14.84" rx="1.98" ry="1.98" fill="#b0e3e6" stroke="#0e8088" stroke-width="1.98" pointer-events="all"/><rect x="1" y="245.84" width="91.75" height="14.84" rx="1.98" ry="1.98" fill="#b0e3e6" stroke="#0e8088" stroke-width="1.98" pointer-events="all"/><path d="M 5.08 243.86 L 26.49 231 L 67.26 231 L 88.67 243.86 Z" fill="#b0e3e6" stroke="#0e8088" stroke-width="1.98" stroke-miterlimit="10" pointer-events="all"/><ellipse cx="84.59" cy="322.53" rx="4.077669902912621" ry="3.958156629912355" fill="#ffffff" stroke="none" pointer-events="all"/><ellipse cx="84.26" cy="305.22" rx="4.077669902912621" ry="3.958156629912355" fill="#ffffff" stroke="none" pointer-events="all"/><ellipse cx="84.59" cy="287.9" rx="4.077669902912621" ry="3.958156629912355" fill="#ffffff" stroke="none" pointer-events="all"/><ellipse cx="84.59" cy="270.58" rx="4.077669902912621" ry="3.958156629912355" fill="#ffffff" stroke="none" pointer-events="all"/><ellipse cx="84.59" cy="253.26" rx="4.077669902912621" ry="3.958156629912355" fill="#ffffff" stroke="none" pointer-events="all"/><path d="M 6.1 327.97 L 11.19 317.09 L 16.29 317.09 L 11.19 327.97 Z M 16.29 327.97 L 21.39 317.09 L 26.49 317.09 L 21.39 327.97 Z M 26.49 327.97 L 31.58 317.09 L 36.68 317.09 L 31.58 327.97 Z M 36.68 327.97 L 41.78 317.09 L 46.87 317.09 L 41.78 327.97 Z M 46.87 327.97 L 51.97 317.09 L 57.07 317.09 L 51.97 327.97 Z M 57.07 327.97 L 62.17 317.09 L 67.26 317.09 L 62.17 327.97 Z M 6.1 310.66 L 11.19 299.77 L 16.29 299.77 L 11.19 310.66 Z M 16.29 310.66 L 21.39 299.77 L 26.49 299.77 L 21.39 310.66 Z M 26.49 310.66 L 31.58 299.77 L 36.68 299.77 L 31.58 310.66 Z M 36.68 310.66 L 41.78 299.77 L 46.87 299.77 L 41.78 310.66 Z M 46.87 310.66 L 51.97 299.77 L 57.07 299.77 L 51.97 310.66 Z M 57.07 310.66 L 62.17 299.77 L 67.26 299.77 L 62.17 310.66 Z M 6.1 293.34 L 11.19 282.46 L 16.29 282.46 L 11.19 293.34 Z M 16.29 293.34 L 21.39 282.46 L 26.49 282.46 L 21.39 293.34 Z M 26.49 293.34 L 31.07 282.46 L 36.17 282.46 L 31.07 293.34 Z M 36.68 293.34 L 41.78 282.46 L 46.87 282.46 L 41.78 293.34 Z M 46.87 293.34 L 51.97 282.46 L 57.07 282.46 L 51.97 293.34 Z M 57.07 293.34 L 62.17 282.46 L 67.26 282.46 L 62.17 293.34 Z M 6.1 276.02 L 11.19 265.14 L 16.29 265.14 L 11.19 276.02 Z M 16.29 276.02 L 21.39 265.14 L 26.49 265.14 L 21.39 276.02 Z M 26.49 276.02 L 31.58 265.14 L 36.68 265.14 L 31.58 276.02 Z M 36.68 276.02 L 41.78 265.14 L 46.87 265.14 L 41.78 276.02 Z M 46.87 276.02 L 51.97 265.14 L 57.07 265.14 L 51.97 276.02 Z M 57.07 276.02 L 62.17 265.14 L 67.26 265.14 L 62.17 276.02 Z M 6.1 258.71 L 11.19 247.82 L 16.29 247.82 L 11.19 258.71 Z M 16.29 258.71 L 21.39 247.82 L 26.49 247.82 L 21.39 258.71 Z M 26.49 258.71 L 31.58 247.82 L 36.68 247.82 L 31.58 258.71 Z M 36.68 258.71 L 41.78 247.82 L 46.87 247.82 L 41.78 258.71 Z M 46.87 258.71 L 51.97 247.82 L 57.07 247.82 L 51.97 258.71 Z M 57.07 258.71 L 62.17 247.82 L 67.26 247.82 L 62.17 258.71 Z" fill="#ffffff" stroke="none" pointer-events="all"/><rect x="1" y="231" width="0" height="0" fill="none" stroke="#0e8088" stroke-width="1.98" pointer-events="all"/><path d="M 68.28 324.51 C 68.28 322.26 76.73 320.44 87.14 320.44 C 97.56 320.44 106 322.26 106 324.51 L 106 331.93 C 106 334.18 97.56 336 87.14 336 C 76.73 336 68.28 334.18 68.28 331.93 Z" fill="#b0e3e6" stroke="#0e8088" stroke-width="1.98" stroke-miterlimit="10" pointer-events="all"/><path d="M 68.28 315.11 C 68.28 312.86 76.73 311.04 87.14 311.04 C 97.56 311.04 106 312.86 106 315.11 L 106 322.53 C 106 324.78 97.56 326.6 87.14 326.6 C 76.73 326.6 68.28 324.78 68.28 322.53 Z" fill="#b0e3e6" stroke="#0e8088" stroke-width="1.98" stroke-miterlimit="10" pointer-events="all"/><path d="M 68.28 306.2 C 68.28 303.96 76.73 302.14 87.14 302.14 C 97.56 302.14 106 303.96 106 306.2 L 106 313.13 C 106 315.38 97.56 317.2 87.14 317.2 C 76.73 317.2 68.28 315.38 68.28 313.13 Z" fill="#b0e3e6" stroke="#0e8088" stroke-width="1.98" stroke-miterlimit="10" pointer-events="all"/><path d="M 68.28 324.51 C 68.28 326.76 76.73 328.58 87.14 328.58 C 97.56 328.58 106 326.76 106 324.51 M 68.28 315.11 C 68.28 317.36 76.73 319.18 87.14 319.18 C 97.56 319.18 106 317.36 106 315.11 M 68.28 306.2 C 68.28 308.45 76.73 310.27 87.14 310.27 C 97.56 310.27 106 308.45 106 306.2" fill="none" stroke="#0e8088" stroke-width="1.98" stroke-miterlimit="10" pointer-events="all"/><g transform="translate(-0.5 -0.5)"><switch><foreignObject pointer-events="none" width="100%" height="100%" requiredFeatures="http://www.w3.org/TR/SVG11/feature#Extensibility" style="overflow: visible; text-align: left;"><div xmlns="http://www.w3.org/1999/xhtml" style="display: flex; align-items: unsafe flex-start; justify-content: unsafe center; width: 1px; height: 1px; padding-top: 343px; margin-left: 54px;"><div data-drawio-colors="color: var(--color-5) " style="box-sizing: border-box; font-size: 0px; text-align: center;"><div style="display: inline-block; font-size: 12px; font-family: Helvetica; color: rgb(255, 255, 255); line-height: 1.2; pointer-events: all; white-space: nowrap;">BACKUP</div></div></div></foreignObject><text x="54" y="355" fill="#FFFFFF" font-family="Helvetica" font-size="12px" text-anchor="middle">BACKUP</text></switch></g><rect x="558" y="381" width="80" height="50" fill="#4f5e6b" stroke="#314354" pointer-events="all"/><g transform="translate(-0.5 -0.5)"><switch><foreignObject pointer-events="none" width="100%" height="100%" requiredFeatures="http://www.w3.org/TR/SVG11/feature#Extensibility" style="overflow: visible; text-align: left;"><div xmlns="http://www.w3.org/1999/xhtml" style="display: flex; align-items: unsafe center; justify-content: unsafe center; width: 78px; height: 1px; padding-top: 406px; margin-left: 559px;"><div data-drawio-colors="color: var(--color-5) " style="box-sizing: border-box; font-size: 0px; text-align: center;"><div style="display: inline-block; font-size: 12px; font-family: Helvetica; color: rgb(255, 255, 255); line-height: 1.2; pointer-events: all; white-space: normal; overflow-wrap: normal;">Memória</div></div></div></foreignObject><text x="598" y="410" fill="#ffffff" font-family="Helvetica" font-size="12px" text-anchor="middle">Memória</text></switch></g><rect x="651" y="381" width="80" height="50" fill="#4f5e6b" stroke="#314354" pointer-events="all"/><g transform="translate(-0.5 -0.5)"><switch><foreignObject pointer-events="none" width="100%" height="100%" requiredFeatures="http://www.w3.org/TR/SVG11/feature#Extensibility" style="overflow: visible; text-align: left;"><div xmlns="http://www.w3.org/1999/xhtml" style="display: flex; align-items: unsafe center; justify-content: unsafe center; width: 78px; height: 1px; padding-top: 406px; margin-left: 652px;"><div data-drawio-colors="color: var(--color-5) " style="box-sizing: border-box; font-size: 0px; text-align: center;"><div style="display: inline-block; font-size: 12px; font-family: Helvetica; color: rgb(255, 255, 255); line-height: 1.2; pointer-events: all; white-space: normal; overflow-wrap: normal;">CPU</div></div></div></foreignObject><text x="691" y="410" fill="#ffffff" font-family="Helvetica" font-size="12px" text-anchor="middle">CPU</text></switch></g><rect x="371" y="171" width="80" height="60" fill="#f5f5f5" stroke="#666666" pointer-events="all"/><g transform="translate(-0.5 -0.5)"><switch><foreignObject pointer-events="none" width="100%" height="100%" requiredFeatures="http://www.w3.org/TR/SVG11/feature#Extensibility" style="overflow: visible; text-align: left;"><div xmlns="http://www.w3.org/1999/xhtml" style="display: flex; align-items: unsafe center; justify-content: unsafe center; width: 78px; height: 1px; padding-top: 201px; margin-left: 372px;"><div data-drawio-colors="color: #333333; " style="box-sizing: border-box; font-size: 0px; text-align: center;"><div style="display: inline-block; font-size: 12px; font-family: Helvetica; color: rgb(51, 51, 51); line-height: 1.2; pointer-events: all; white-space: normal; overflow-wrap: normal;">VM01</div></div></div></foreignObject><text x="411" y="205" fill="#333333" font-family="Helvetica" font-size="12px" text-anchor="middle">VM01</text></switch></g><rect x="464" y="171" width="80" height="60" fill="#f5f5f5" stroke="#666666" pointer-events="all"/><g transform="translate(-0.5 -0.5)"><switch><foreignObject pointer-events="none" width="100%" height="100%" requiredFeatures="http://www.w3.org/TR/SVG11/feature#Extensibility" style="overflow: visible; text-align: left;"><div xmlns="http://www.w3.org/1999/xhtml" style="display: flex; align-items: unsafe center; justify-content: unsafe center; width: 78px; height: 1px; padding-top: 201px; margin-left: 465px;"><div data-drawio-colors="color: #333333; " style="box-sizing: border-box; font-size: 0px; text-align: center;"><div style="display: inline-block; font-size: 12px; font-family: Helvetica; color: rgb(51, 51, 51); line-height: 1.2; pointer-events: all; white-space: normal; overflow-wrap: normal;">VM02</div></div></div></foreignObject><text x="504" y="205" fill="#333333" font-family="Helvetica" font-size="12px" text-anchor="middle">VM02</text></switch></g><rect x="558" y="171" width="80" height="60" fill="#f5f5f5" stroke="#666666" pointer-events="all"/><g transform="translate(-0.5 -0.5)"><switch><foreignObject pointer-events="none" width="100%" height="100%" requiredFeatures="http://www.w3.org/TR/SVG11/feature#Extensibility" style="overflow: visible; text-align: left;"><div xmlns="http://www.w3.org/1999/xhtml" style="display: flex; align-items: unsafe center; justify-content: unsafe center; width: 78px; height: 1px; padding-top: 201px; margin-left: 559px;"><div data-drawio-colors="color: #333333; " style="box-sizing: border-box; font-size: 0px; text-align: center;"><div style="display: inline-block; font-size: 12px; font-family: Helvetica; color: rgb(51, 51, 51); line-height: 1.2; pointer-events: all; white-space: normal; overflow-wrap: normal;">LXC01</div></div></div></foreignObject><text x="598" y="205" fill="#333333" font-family="Helvetica" font-size="12px" text-anchor="middle">LXC01</text></switch></g><rect x="651" y="171" width="80" height="60" fill="#f5f5f5" stroke="#666666" pointer-events="all"/><g transform="translate(-0.5 -0.5)"><switch><foreignObject pointer-events="none" width="100%" height="100%" requiredFeatures="http://www.w3.org/TR/SVG11/feature#Extensibility" style="overflow: visible; text-align: left;"><div xmlns="http://www.w3.org/1999/xhtml" style="display: flex; align-items: unsafe center; justify-content: unsafe center; width: 78px; height: 1px; padding-top: 201px; margin-left: 652px;"><div data-drawio-colors="color: #333333; " style="box-sizing: border-box; font-size: 0px; text-align: center;"><div style="display: inline-block; font-size: 12px; font-family: Helvetica; color: rgb(51, 51, 51); line-height: 1.2; pointer-events: all; white-space: normal; overflow-wrap: normal;">LXC02</div></div></div></foreignObject><text x="691" y="205" fill="#333333" font-family="Helvetica" font-size="12px" text-anchor="middle">LXC02</text></switch></g><path d="M 406.56 342.77 L 396.06 342.77 L 411 331.5 L 425.94 342.77 L 415.44 342.77 L 415.44 367.56 L 425.94 367.56 L 411 380.5 L 396.06 367.56 L 406.56 367.56 Z" fill="#b0e3e6" stroke="#0e8088" stroke-miterlimit="10" pointer-events="all"/><path d="M 500.56 342.77 L 490.06 342.77 L 505 331.5 L 519.94 342.77 L 509.44 342.77 L 509.44 367.56 L 519.94 367.56 L 505 380.5 L 490.06 367.56 L 500.56 367.56 Z" fill="#b0e3e6" stroke="#0e8088" stroke-miterlimit="10" pointer-events="all"/><path d="M 594.56 342.77 L 584.06 342.77 L 599 331.5 L 613.94 342.77 L 603.44 342.77 L 603.44 367.56 L 613.94 367.56 L 599 380.5 L 584.06 367.56 L 594.56 367.56 Z" fill="#b0e3e6" stroke="#0e8088" stroke-miterlimit="10" pointer-events="all"/><path d="M 688.56 342.77 L 678.06 342.77 L 693 331.5 L 707.94 342.77 L 697.44 342.77 L 697.44 367.56 L 707.94 367.56 L 693 380.5 L 678.06 367.56 L 688.56 367.56 Z" fill="#b0e3e6" stroke="#0e8088" stroke-miterlimit="10" pointer-events="all"/><path d="M 406.56 242.77 L 396.06 242.77 L 411 231.5 L 425.94 242.77 L 415.44 242.77 L 415.44 267.56 L 425.94 267.56 L 411 280.5 L 396.06 267.56 L 406.56 267.56 Z" fill="#b0e3e6" stroke="#0e8088" stroke-miterlimit="10" pointer-events="all"/><path d="M 500.56 242.77 L 490.06 242.77 L 505 231.5 L 519.94 242.77 L 509.44 242.77 L 509.44 267.56 L 519.94 267.56 L 505 280.5 L 490.06 267.56 L 500.56 267.56 Z" fill="#b0e3e6" stroke="#0e8088" stroke-miterlimit="10" pointer-events="all"/><path d="M 594.56 242.77 L 584.06 242.77 L 599 231.5 L 613.94 242.77 L 603.44 242.77 L 603.44 267.56 L 613.94 267.56 L 599 280.5 L 584.06 267.56 L 594.56 267.56 Z" fill="#b0e3e6" stroke="#0e8088" stroke-miterlimit="10" pointer-events="all"/><path d="M 688.56 242.77 L 678.06 242.77 L 693 231.5 L 707.94 242.77 L 697.44 242.77 L 697.44 267.56 L 707.94 267.56 L 693 280.5 L 678.06 267.56 L 688.56 267.56 Z" fill="#b0e3e6" stroke="#0e8088" stroke-miterlimit="10" pointer-events="all"/></g><switch><g requiredFeatures="http://www.w3.org/TR/SVG11/feature#Extensibility"/><a transform="translate(0,-5)" xlink:href="https://www.diagrams.net/doc/faq/svg-export-text-problems" target="_blank"><text text-anchor="middle" font-size="10px" x="50%" y="100%">Text is not SVG - cannot display</text></a></switch></svg>